#!OML:ASF G:\JayActor3\Patient Classification 1\Patient 1\Session 6\male.ASF
:FULLY-SPECIFIED
:DEGREES
527
root 30.8703 15.7964 -15.0818 174.092 -24.4204 -169.784
lowerback 4.66409 0.968627 5.41154
upperback 2.38069 1.41549 -0.714
thorax -0.00449609 0.721865 -3.83678
lowerneck -6.81782 2.32056 3.64746
upperneck 1.95558 2.70825 0.738312
head 1.81373 1.38292 -0.289791
rclavicle -3.49861e-014 3.18055e-014
rhumerus -29.5987 15.8663 -98.6613
rradius 51.9491
rwrist -0.534678
rhand -26.3225 -10.0033
rfingers 7.12502
rthumb 0.234228 -39.9829
lclavicle -3.49861e-014 3.18055e-014
lhumerus -52.7798 21.6809 71.6369
lradius 1.59823
lwrist -10.149
lhand -18.9315 16.5703
lfingers 7.12502
lthumb 7.37127 46.4219
rfemur 10.177 1.5321 22.66
rtibia 44.0263
rfoot 11.9309 -12.6543
rtoes 4.58932
lfemur -23.0206 14.4321 -22.1248
ltibia 30.5954
lfoot -12.1382 3.02396
ltoes 3.86611
528
root 30.7395 15.8203 -15.1945 174.064 -24.4088 -169.934
lowerback 4.56961 0.920132 5.50522
upperback 2.39447 1.34914 -0.870444
thorax 0.062147 0.693336 -4.04699
lowerneck -6.8522 2.27594 3.46996
upperneck 1.93265 2.66674 0.697589
head 1.80937 1.36032 -0.273803
rclavicle -6.85807e-015 -4.77083e-014
rhumerus -29.7659 14.7 -98.4946
rradius 50.0449
rwrist 0.0275618
rhand -26.4595 -9.94752
rfingers 7.12502
rthumb 0.101912 -39.9272
lclavicle -6.85807e-015 -4.77083e-014
lhumerus -51.1088 21.8844 71.7597
lradius 1.99787
lwrist -9.0788
lhand -19.9182 16.5151
lfingers 7.12502
lthumb 6.41875 46.3979
rfemur 8.20718 1.84607 22.3199
rtibia 47.428
rfoot 12.5206 -13.3257
rtoes 4.43069
lfemur -21.9591 13.8909 -22.3087
ltibia 30.1439
lfoot -11.8328 3.43768
ltoes 5.78371
529
root 30.6076 15.8454 -15.3034 174.005 -24.4215 -170.017
lowerback 4.5135 0.850014 5.62435
upperback 2.38429 1.25846 -0.956442
thorax 0.078173 0.65057 -4.19899
lowerneck -6.85377 2.26195 3.33177
upperneck 1.93461 2.67108 0.524256
head 1.81099 1.35882 -0.304664
rclavicle -5.36719e-015 3.18055e-015
rhumerus -29.9238 13.527 -98.2032
rradius 48.079
rwrist 0.510395
rhand -26.4317 -9.90404
rfingers 7.12502
rthumb 0.128805 -39.8837
lclavicle -5.36719e-015 3.18055e-015
lhumerus -49.5142 22.1044 71.9093
lradius 2.63076
lwrist -7.70447
lhand -20.9346 16.3111
lfingers 7.12502
lthumb 5.43751 46.2213
rfemur 6.26673 2.16994 22.0694
rtibia 50.6448
rfoot 12.4334 -13.6764
rtoes 3.88028
lfemur -20.861 13.3453 -22.4489
ltibia 29.6302
lfoot -11.6144 3.84117
ltoes 7.42157
530
root 30.4768 15.8709 -15.4091 173.915 -24.4483 -170.057
lowerback 4.53548 0.765737 5.72306
upperback 2.33379 1.15498 -0.980505
thorax 0.00476639 0.597488 -4.2767
lowerneck -6.82181 2.2727 3.23134
upperneck 1.98453 2.71114 0.255972
head 1.82521 1.37425 -0.370573
rclavicle -3.48867e-014 -4.29375e-014
rhumerus -30.0855 12.3057 -97.7846
rradius 46.0548
rwrist 0.981203
rhand -26.1471 -9.77927
rfingers 7.12502
rthumb 0.403636 -39.7586
lclavicle -3.48867e-014 -4.29375e-014
lhumerus -48.3777 22.322 72.0318
lradius 4.18645
lwrist -6.06856
lhand -21.6773 16.2345
lfingers 7.12502
lthumb 4.72038 46.1619
rfemur 4.35283 2.52785 21.9079
rtibia 53.6851
rfoot 11.6516 -13.7249
rtoes 3.08656
lfemur -19.73 12.886 -22.5597
ltibia 29.0535
lfoot -11.4739 4.14186
ltoes 8.72049
531
root 30.349 15.8968 -15.5125 173.827 -24.4772 -170.116
lowerback 4.62926 0.682954 5.73604
upperback 2.24048 1.05701 -0.972001
thorax -0.15556 0.542962 -4.27387
lowerneck -6.75844 2.29637 3.16146
upperneck 2.08569 2.76889 -0.0541333
head 1.85237 1.39836 -0.454346
rclavicle -3.95581e-014 2.8625e-014
rhumerus -30.2444 11.0053 -97.2429
rradius 43.9729
rwrist 1.46587
rhand -25.776 -9.75114
rfingers 7.12502
rthumb 0.762069 -39.7295
lclavicle -3.95581e-014 2.8625e-014
lhumerus -47.35 22.5084 72.1466
lradius 5.97627
lwrist -4.25912
lhand -22.2375 16.0767
lfingers 7.12502
lthumb 4.17945 46.0154
rfemur 2.44382 2.94595 21.7848
rtibia 56.5491
rfoot 10.2964 -13.5215
rtoes 2.10938
lfemur -18.583 12.5868 -22.6973
ltibia 28.4142
lfoot -11.3999 4.29496
ltoes 9.58753
532
root 30.2255 15.9229 -15.6143 173.762 -24.507 -170.232
lowerback 4.76432 0.613169 5.63656
upperback 2.11928 0.975701 -0.954716
thorax -0.368446 0.494096 -4.19961
lowerneck -6.67041 2.32091 3.11499
upperneck 2.22651 2.82641 -0.361816
head 1.88875 1.42267 -0.541602
rclavicle 2.21645e-014 3.49861e-014
rhumerus -30.3776 9.61724 -96.5831
rradius 41.8355
rwrist 1.98164
rhand -25.1899 -9.69954
rfingers 7.12502
rthumb 1.32818 -39.6751
lclavicle 2.21645e-014 3.49861e-014
lhumerus -46.3609 22.6428 72.2579
lradius 7.91822
lwrist -2.36352
lhand -22.5883 15.8708
lfingers 7.12502
lthumb 3.84071 45.8159
rfemur 0.532776 3.44021 21.6701
rtibia 59.2243
rfoot 8.54627 -13.143
rtoes 1.20159
lfemur -17.4336 12.4754 -22.8838
ltibia 27.7234
lfoot -11.382 4.25309
ltoes 10.2103
533
root 30.1056 15.9488 -15.7153 173.717 -24.5677 -170.398
lowerback 4.88788 0.553641 5.44399
upperback 2.0009 0.902639 -0.940614
thorax -0.57241 0.449568 -4.07579
lowerneck -6.56821 2.33572 3.08024
upperneck 2.3818 2.86842 -0.633203
head 1.92681 1.4398 -0.620268
rclavicle -5.02925e-014 6.36111e-015
rhumerus -30.4544 8.16257 -95.8178
rradius 39.6511
rwrist 2.47815
rhand -24.4965 -9.6758
rfingers 7.12502
rthumb 1.99782 -39.6462
lclavicle -5.02925e-014 6.36111e-015
lhumerus -45.3366 22.722 72.3833
lradius 9.96129
lwrist -0.421631
lhand -22.6966 15.6272
lfingers 7.12502
lthumb 3.73609 45.5742
rfemur -1.36896 3.98432 21.5573
rtibia 61.6871
rfoot 6.62837 -12.6751
rtoes 0.191207
lfemur -16.2886 12.5087 -23.1152
ltibia 26.9966
lfoot -11.4003 4.02469
ltoes 10.6661
534
root 29.9886 15.9739 -15.8157 173.68 -24.67 -170.568
lowerback 4.95422 0.499205 5.21703
upperback 1.90989 0.829472 -0.924708
thorax -0.716086 0.407428 -3.92923
lowerneck -6.46327 2.33776 3.04848
upperneck 2.52707 2.89007 -0.848095
head 1.95977 1.44749 -0.68257
rclavicle 4.12478e-014 -1.90833e-014
rhumerus -30.4596 6.70883 -94.9797
rradius 37.4508
rwrist 2.84107
rhand -23.8657 -9.83988
rfingers 7.12502
rthumb 2.60702 -39.8037
lclavicle 4.12478e-014 -1.90833e-014
lhumerus -44.2204 22.7619 72.5394
lradius 12.0604
lwrist 1.50049
lhand -22.6816 15.3262
lfingers 7.12502
lthumb 3.75054 45.2729
rfemur -3.25318 4.5594 21.4807
rtibia 63.9123
rfoot 4.6697 -12.1926
rtoes -1.14856
lfemur -15.1682 12.627 -23.345
ltibia 26.268
lfoot -11.4407 3.65876
ltoes 11.143
535
root 29.8729 15.9972 -15.916 173.644 -24.8507 -170.729
lowerback 4.92844 0.43126 4.97241
upperback 1.86491 0.730058 -0.902228
thorax -0.76309 0.355667 -3.76268
lowerneck -6.37803 2.33181 3.01321
upperneck 2.65755 2.89743 -1.00604
head 1.98996 1.44876 -0.726734
rclavicle 7.95139e-014 -4.77083e-014
rhumerus -30.3862 5.28897 -94.0726
rradius 35.247
rwrist 3.0962
rhand -23.3334 -10.1636
rfingers 7.12502
rthumb 3.12111 -40.1205
lclavicle 7.95139e-014 -4.77083e-014
lhumerus -42.055 20.2102 75.2814
lradius 14.2131
lwrist 6.5989
lhand -23.2358 15.6453
lfingers 7.12502
lthumb 3.21536 45.6008
rfemur -5.09884 5.12415 21.4326
rtibia 65.8827
rfoot 2.73104 -11.7114
rtoes -2.64868
lfemur -14.0898 12.764 -23.5718
ltibia 25.5767
lfoot -11.4838 3.20151
ltoes 11.5889
